<mxfile host="Electron" modified="2023-10-18T16:29:56.664Z" agent="Mozilla/5.0 (Macintosh; Intel Mac OS X 10_15_7) AppleWebKit/537.36 (KHTML, like Gecko) draw.io/21.6.5 Chrome/114.0.5735.243 Electron/25.3.1 Safari/537.36" etag="3YpjcjGWXYPjpowVXULU" version="21.6.5" type="device">
  <diagram name="Page-1" id="ctfsVu_kBOzzz3hRFQzQ">
    <mxGraphModel dx="1434" dy="877" grid="1" gridSize="10" guides="1" tooltips="1" connect="1" arrows="1" fold="1" page="1" pageScale="1" pageWidth="827" pageHeight="1169" math="0" shadow="0">
      <root>
        <mxCell id="0" />
        <mxCell id="1" parent="0" />
        <mxCell id="Pz1gvCipdb-HbaqAAHkX-1" value="PUBLISHER&lt;br&gt;(MONO , FLUX)" style="rounded=0;whiteSpace=wrap;html=1;" vertex="1" parent="1">
          <mxGeometry x="170" y="210" width="120" height="60" as="geometry" />
        </mxCell>
        <mxCell id="Pz1gvCipdb-HbaqAAHkX-3" value="" style="edgeStyle=orthogonalEdgeStyle;rounded=0;orthogonalLoop=1;jettySize=auto;html=1;" edge="1" parent="1" source="Pz1gvCipdb-HbaqAAHkX-2" target="Pz1gvCipdb-HbaqAAHkX-1">
          <mxGeometry relative="1" as="geometry" />
        </mxCell>
        <mxCell id="Pz1gvCipdb-HbaqAAHkX-2" value="SUBSCRIBER" style="rounded=0;whiteSpace=wrap;html=1;" vertex="1" parent="1">
          <mxGeometry x="420" y="210" width="120" height="60" as="geometry" />
        </mxCell>
        <mxCell id="Pz1gvCipdb-HbaqAAHkX-4" value="Subscription" style="text;html=1;align=center;verticalAlign=middle;resizable=0;points=[];autosize=1;strokeColor=none;fillColor=none;" vertex="1" parent="1">
          <mxGeometry x="310" y="200" width="90" height="30" as="geometry" />
        </mxCell>
      </root>
    </mxGraphModel>
  </diagram>
</mxfile>
